# xmcd
#
# Track frame offsets:
#	150
#	10550
#	21432
#	36675
#	45525
#	58295
#	63627
#	82547
#	87120
#	94667
#	100555
#	110852
#	117297
#	132320
#	137905
#	147332
#	154540
#	163027
#	170165
#	177552
#	184607
#	191772
#
# Disc length: 2738 seconds
#
# Revision: 1
# Processed by: cddbd v1.5.1PL0 Copyright (c) Steve Scherf et al.
# Submitted via: CDex 1.50Beta5
#
DISCID=350ab016
DTITLE=さまざまなアーティスト - 日本名作絵本 Disc19 童謡
DYEAR=1900
DGENRE=
TTITLE0=かなりや
TTITLE1=あわてとこや
TTITLE2=しかられて
TTITLE3=七つの子
TTITLE4=赤とんぼ
TTITLE5=夕日
TTITLE6=月のさばく
TTITLE7=かたたたき
TTITLE8=夕やけ小やけ
TTITLE9=春よ来い
TTITLE10=からたちの花
TTITLE11=証城寺のたぬきばやし
TTITLE12=ペチカ
TTITLE13=あの町この町
TTITLE14=うれしいひなまつり
TTITLE15=かもめの水兵さん
TTITLE16=なかよし小道
TTITLE17=ないしょ話
TTITLE18=汽車ポッポ
TTITLE19=たき火
TTITLE20=赤ちゃんのお耳
TTITLE21=小さい秋見つけた
EXTD=
EXTT0=
EXTT1=
EXTT2=
EXTT3=
EXTT4=
EXTT5=
EXTT6=
EXTT7=
EXTT8=
EXTT9=
EXTT10=
EXTT11=
EXTT12=
EXTT13=
EXTT14=
EXTT15=
EXTT16=
EXTT17=
EXTT18=
EXTT19=
EXTT20=
EXTT21=
PLAYORDER=
